<mxfile host="Electron" agent="Mozilla/5.0 (X11; Linux x86_64) AppleWebKit/537.36 (KHTML, like Gecko) draw.io/24.7.17 Chrome/128.0.6613.36 Electron/32.0.1 Safari/537.36" version="24.7.17">
  <diagram name="Page-1" id="DBZPj44LbbOanJY9TFiw">
    <mxGraphModel dx="1419" dy="879" grid="1" gridSize="10" guides="1" tooltips="1" connect="1" arrows="1" fold="1" page="1" pageScale="1" pageWidth="600" pageHeight="400" math="0" shadow="0">
      <root>
        <mxCell id="0" />
        <mxCell id="1" parent="0" />
        <mxCell id="myED1TFq7FXXiKm_8lRY-15" value="Intel ME Gen 2 MFS" style="rounded=0;whiteSpace=wrap;html=1;verticalAlign=top;fontSize=20;" vertex="1" parent="1">
          <mxGeometry x="-20" y="-60" width="630" height="480" as="geometry" />
        </mxCell>
        <mxCell id="myED1TFq7FXXiKm_8lRY-1" value="partition" style="rounded=0;whiteSpace=wrap;html=1;fillColor=#1ba1e2;fontColor=#ffffff;strokeColor=#006EAF;strokeWidth=3;verticalAlign=bottom;labelPosition=center;verticalLabelPosition=top;align=center;" vertex="1" parent="1">
          <mxGeometry width="80" height="400" as="geometry" />
        </mxCell>
        <mxCell id="myED1TFq7FXXiKm_8lRY-2" value="page 2" style="rounded=0;whiteSpace=wrap;html=1;" vertex="1" parent="1">
          <mxGeometry width="80" height="90" as="geometry" />
        </mxCell>
        <mxCell id="myED1TFq7FXXiKm_8lRY-3" value="page 0" style="rounded=0;whiteSpace=wrap;html=1;" vertex="1" parent="1">
          <mxGeometry y="90" width="80" height="90" as="geometry" />
        </mxCell>
        <mxCell id="myED1TFq7FXXiKm_8lRY-4" value="unused" style="rounded=0;whiteSpace=wrap;html=1;" vertex="1" parent="1">
          <mxGeometry y="180" width="80" height="90" as="geometry" />
        </mxCell>
        <mxCell id="myED1TFq7FXXiKm_8lRY-5" value="page 1" style="rounded=0;whiteSpace=wrap;html=1;" vertex="1" parent="1">
          <mxGeometry y="310" width="80" height="90" as="geometry" />
        </mxCell>
        <mxCell id="myED1TFq7FXXiKm_8lRY-6" value="..." style="text;html=1;align=center;verticalAlign=middle;whiteSpace=wrap;rounded=0;" vertex="1" parent="1">
          <mxGeometry x="10" y="270" width="60" height="30" as="geometry" />
        </mxCell>
        <mxCell id="myED1TFq7FXXiKm_8lRY-7" value="page 0" style="rounded=0;whiteSpace=wrap;html=1;fillColor=#6a00ff;fontColor=#ffffff;strokeColor=#3700CC;strokeWidth=4;labelPosition=center;verticalLabelPosition=top;align=center;verticalAlign=bottom;" vertex="1" parent="1">
          <mxGeometry x="180" y="40" width="160" height="320" as="geometry" />
        </mxCell>
        <mxCell id="myED1TFq7FXXiKm_8lRY-8" value="0" style="rounded=0;whiteSpace=wrap;html=1;align=left;" vertex="1" parent="1">
          <mxGeometry x="180" y="40" width="40" height="10" as="geometry" />
        </mxCell>
        <mxCell id="myED1TFq7FXXiKm_8lRY-9" value="page N" style="rounded=0;whiteSpace=wrap;html=1;fontColor=#ffffff;fillColor=#6a00ff;strokeColor=#3700CC;strokeWidth=4;shadow=0;glass=0;verticalAlign=bottom;labelPosition=center;verticalLabelPosition=top;align=center;" vertex="1" parent="1">
          <mxGeometry x="420" y="40" width="160" height="320" as="geometry" />
        </mxCell>
        <mxCell id="myED1TFq7FXXiKm_8lRY-10" value="N" style="rounded=0;whiteSpace=wrap;html=1;align=left;" vertex="1" parent="1">
          <mxGeometry x="420" y="40" width="40" height="10" as="geometry" />
        </mxCell>
        <mxCell id="myED1TFq7FXXiKm_8lRY-11" value="MFS" style="rounded=0;whiteSpace=wrap;html=1;align=left;" vertex="1" parent="1">
          <mxGeometry x="260" y="40" width="40" height="10" as="geometry" />
        </mxCell>
        <mxCell id="myED1TFq7FXXiKm_8lRY-12" value="???" style="rounded=0;whiteSpace=wrap;html=1;" vertex="1" parent="1">
          <mxGeometry x="420" y="50" width="160" height="80" as="geometry" />
        </mxCell>
        <mxCell id="myED1TFq7FXXiKm_8lRY-13" value="list (?); can be unordered&lt;br&gt;00..3f;&amp;nbsp;ff = free (?)" style="rounded=0;whiteSpace=wrap;html=1;" vertex="1" parent="1">
          <mxGeometry x="420" y="130" width="160" height="40" as="geometry" />
        </mxCell>
        <mxCell id="myED1TFq7FXXiKm_8lRY-16" value="chunk" style="rounded=0;whiteSpace=wrap;html=1;fontSize=12;" vertex="1" parent="1">
          <mxGeometry x="420" y="170" width="160" height="20" as="geometry" />
        </mxCell>
        <mxCell id="myED1TFq7FXXiKm_8lRY-17" value="..." style="rounded=0;whiteSpace=wrap;html=1;fillColor=none;" vertex="1" parent="1">
          <mxGeometry x="420" y="190" width="160" height="110" as="geometry" />
        </mxCell>
        <mxCell id="myED1TFq7FXXiKm_8lRY-18" value="chunk" style="rounded=0;whiteSpace=wrap;html=1;fontSize=12;" vertex="1" parent="1">
          <mxGeometry x="420" y="300" width="160" height="60" as="geometry" />
        </mxCell>
        <mxCell id="myED1TFq7FXXiKm_8lRY-19" value="index list ??" style="rounded=0;whiteSpace=wrap;html=1;" vertex="1" parent="1">
          <mxGeometry x="180" y="50" width="160" height="270" as="geometry" />
        </mxCell>
        <mxCell id="myED1TFq7FXXiKm_8lRY-20" value="ff ff ff ff" style="rounded=0;whiteSpace=wrap;html=1;align=left;" vertex="1" parent="1">
          <mxGeometry x="180" y="50" width="40" height="10" as="geometry" />
        </mxCell>
        <mxCell id="myED1TFq7FXXiKm_8lRY-21" value="chunks have variable size, encoded in first two bytes" style="text;html=1;align=center;verticalAlign=middle;whiteSpace=wrap;rounded=0;" vertex="1" parent="1">
          <mxGeometry x="420" y="370" width="160" height="40" as="geometry" />
        </mxCell>
        <mxCell id="myED1TFq7FXXiKm_8lRY-22" value="entries are usually 11B each,&lt;div&gt;format/semantics unknown&lt;/div&gt;" style="text;html=1;align=center;verticalAlign=middle;whiteSpace=wrap;rounded=0;" vertex="1" parent="1">
          <mxGeometry x="180" y="370" width="160" height="40" as="geometry" />
        </mxCell>
      </root>
    </mxGraphModel>
  </diagram>
</mxfile>
